<svg width="765" height="545" viewBox="0 0 765 545" fill="none" xmlns="http://www.w3.org/2000/svg">
<path d="M13.1756 237.754H112.83V263.448H50.4435V282.574H108.315V307.118H50.4435V330.842H114.636V358.095H13.1756V237.754ZM213.059 237.754H250.163V309.499C250.163 316.613 249.041 323.344 246.797 329.693C244.608 335.986 241.133 341.513 236.372 346.274C231.666 350.981 226.713 354.291 221.514 356.207C214.291 358.888 205.617 360.229 195.492 360.229C189.637 360.229 183.234 359.819 176.284 358.998C169.389 358.177 163.615 356.563 158.963 354.155C154.312 351.692 150.043 348.217 146.158 343.73C142.327 339.242 139.7 334.618 138.277 329.857C135.979 322.195 134.83 315.409 134.83 309.499V237.754H171.933V311.223C171.933 317.79 173.739 322.934 177.351 326.655C181.018 330.322 186.08 332.155 192.537 332.155C198.94 332.155 203.947 330.349 207.559 326.737C211.226 323.071 213.059 317.899 213.059 311.223V237.754Z" fill="black"/>
<path d="M457.554 338.23H415.197L409.368 358.095H371.362L416.592 237.754H457.143L502.374 358.095H463.464L457.554 338.23ZM449.756 312.208L436.457 268.948L423.241 312.208H449.756ZM594.476 308.924L627.065 318.775C624.876 327.914 621.428 335.548 616.722 341.677C612.016 347.807 606.16 352.431 599.155 355.55C592.205 358.669 583.34 360.229 572.559 360.229C559.479 360.229 548.781 358.341 540.462 354.565C532.199 350.734 525.057 344.03 519.038 334.454C513.018 324.877 510.008 312.618 510.008 297.678C510.008 277.758 515.289 262.463 525.851 251.791C536.468 241.065 551.462 235.702 570.835 235.702C585.994 235.702 597.897 238.767 606.543 244.896C615.244 251.025 621.702 260.438 625.916 273.134L593.081 280.44C591.931 276.773 590.728 274.092 589.469 272.395C587.389 269.55 584.845 267.361 581.835 265.828C578.825 264.296 575.459 263.53 571.738 263.53C563.31 263.53 556.853 266.923 552.365 273.709C548.972 278.743 547.276 286.651 547.276 297.432C547.276 310.785 549.301 319.951 553.35 324.931C557.4 329.857 563.091 332.319 570.424 332.319C577.539 332.319 582.902 330.322 586.514 326.327C590.18 322.332 592.834 316.531 594.476 308.924ZM725.324 308.924L757.913 318.775C755.724 327.914 752.276 335.548 747.57 341.677C742.863 347.807 737.008 352.431 730.003 355.55C723.053 358.669 714.187 360.229 703.407 360.229C690.327 360.229 679.628 358.341 671.31 354.565C663.047 350.734 655.905 344.03 649.885 334.454C643.866 324.877 640.856 312.618 640.856 297.678C640.856 277.758 646.137 262.463 656.699 251.791C667.315 241.065 682.31 235.702 701.683 235.702C716.842 235.702 728.744 238.767 737.391 244.896C746.092 251.025 752.55 260.438 756.764 273.134L723.928 280.44C722.779 276.773 721.575 274.092 720.317 272.395C718.237 269.55 715.692 267.361 712.682 265.828C709.673 264.296 706.307 263.53 702.586 263.53C694.158 263.53 687.7 266.923 683.213 273.709C679.82 278.743 678.124 286.651 678.124 297.432C678.124 310.785 680.148 319.951 684.198 324.931C688.248 329.857 693.939 332.319 701.272 332.319C708.387 332.319 713.75 330.322 717.361 326.327C721.028 322.332 723.682 316.531 725.324 308.924Z" fill="black"/>
<path d="M207.219 458.307L211.876 472.792H226.946L214.754 481.744L219.411 496.229L207.219 487.277L195.026 496.229L199.683 481.744L187.491 472.792H202.562L207.219 458.307Z" fill="#FFDD00"/>
<path d="M141.802 511.57L145.439 522.883H157.208L147.687 529.874L151.324 541.187L141.802 534.195L132.28 541.187L135.917 529.874L126.395 522.883H138.165L141.802 511.57Z" fill="#FFDD00"/>
<path d="M262.945 385.958L269.362 404.675H290.13L273.328 416.243L279.746 434.96L262.945 423.392L246.143 434.96L252.561 416.243L235.76 404.675H256.527L262.945 385.958Z" fill="#FFDD00"/>
<path d="M313.502 284.04L321.922 308.179L349.168 308.179L327.125 323.099L335.545 347.238L313.502 332.319L291.46 347.238L299.88 323.099L277.837 308.179L305.083 308.179L313.502 284.04Z" fill="#FFDD00"/>
<path d="M344.206 153.908L355.101 187.795H390.358L361.834 208.739L372.729 242.626L344.206 221.683L315.682 242.626L326.577 208.739L298.053 187.795H333.31L344.206 153.908Z" fill="#FFDD00"/>
<path d="M349.4 0.544006L361.93 39.5159H402.477L369.673 63.6018L382.203 102.574L349.4 78.4877L316.597 102.574L329.126 63.6018L296.323 39.5159H336.87L349.4 0.544006Z" fill="#FFDD00"/>
</svg>
