<svg width="764" height="545" viewBox="0 0 764 545" fill="none" xmlns="http://www.w3.org/2000/svg">
<path d="M12.5386 237.901H112.193V263.594H49.8064V282.721H107.678V307.265H49.8064V330.988H113.999V358.242H12.5386V237.901ZM212.422 237.901H249.526V309.646C249.526 316.76 248.404 323.491 246.16 329.839C243.971 336.133 240.496 341.66 235.735 346.421C231.029 351.127 226.076 354.438 220.877 356.353C213.653 359.035 204.98 360.376 194.855 360.376C189 360.376 182.597 359.965 175.647 359.144C168.751 358.324 162.978 356.709 158.326 354.301C153.675 351.839 149.406 348.364 145.521 343.876C141.69 339.389 139.063 334.764 137.64 330.003C135.342 322.342 134.193 315.556 134.193 309.646V237.901H171.296V311.369C171.296 317.936 173.102 323.081 176.714 326.802C180.381 330.469 185.443 332.302 191.9 332.302C198.303 332.302 203.31 330.496 206.922 326.884C210.589 323.217 212.422 318.046 212.422 311.369V237.901Z" fill="white"/>
<path d="M456.917 338.376H414.56L408.731 358.242H370.725L415.955 237.901H456.506L501.737 358.242H462.827L456.917 338.376ZM449.118 312.354L435.82 269.094L422.604 312.354H449.118ZM593.839 309.071L626.428 318.922C624.239 328.061 620.791 335.695 616.085 341.824C611.378 347.953 605.523 352.577 598.518 355.697C591.568 358.816 582.703 360.376 571.922 360.376C558.842 360.376 548.144 358.488 539.825 354.712C531.562 350.881 524.42 344.177 518.4 334.6C512.381 325.023 509.371 312.765 509.371 297.825C509.371 277.905 514.652 262.609 525.214 251.938C535.83 241.212 550.825 235.849 570.198 235.849C585.357 235.849 597.259 238.913 605.906 245.043C614.607 251.172 621.065 260.585 625.279 273.281L592.444 280.587C591.294 276.92 590.09 274.238 588.832 272.542C586.752 269.696 584.207 267.507 581.198 265.975C578.188 264.443 574.822 263.676 571.101 263.676C562.673 263.676 556.216 267.069 551.728 273.855C548.335 278.89 546.639 286.798 546.639 297.579C546.639 310.932 548.663 320.098 552.713 325.078C556.763 330.003 562.454 332.466 569.787 332.466C576.902 332.466 582.265 330.469 585.877 326.474C589.543 322.479 592.197 316.678 593.839 309.071ZM724.687 309.071L757.276 318.922C755.087 328.061 751.639 335.695 746.933 341.824C742.226 347.953 736.371 352.577 729.366 355.697C722.416 358.816 713.55 360.376 702.769 360.376C689.69 360.376 678.991 358.488 670.673 354.712C662.41 350.881 655.268 344.177 649.248 334.6C643.229 325.023 640.219 312.765 640.219 297.825C640.219 277.905 645.5 262.609 656.062 251.938C666.678 241.212 681.673 235.849 701.046 235.849C716.204 235.849 728.107 238.913 736.754 245.043C745.455 251.172 751.913 260.585 756.126 273.281L723.291 280.587C722.142 276.92 720.938 274.238 719.68 272.542C717.6 269.696 715.055 267.507 712.045 265.975C709.035 264.443 705.67 263.676 701.949 263.676C693.521 263.676 687.063 267.069 682.576 273.855C679.183 278.89 677.486 286.798 677.486 297.579C677.486 310.932 679.511 320.098 683.561 325.078C687.611 330.003 693.302 332.466 700.635 332.466C707.749 332.466 713.113 330.469 716.724 326.474C720.391 322.479 723.045 316.678 724.687 309.071Z" fill="white"/>
<path d="M206.582 458.453L211.239 472.939H226.309L214.117 481.891L218.774 496.376L206.582 487.424L194.389 496.376L199.046 481.891L186.854 472.939H201.924L206.582 458.453Z" fill="#FFDD00"/>
<path d="M141.165 511.717L144.802 523.029H156.571L147.05 530.021L150.687 541.333L141.165 534.342L131.643 541.333L135.28 530.021L125.758 523.029H137.528L141.165 511.717Z" fill="#FFDD00"/>
<path d="M262.307 386.104L268.725 404.822H289.493L272.691 416.39L279.109 435.107L262.307 423.539L245.506 435.107L251.924 416.39L235.122 404.822H255.89L262.307 386.104Z" fill="#FFDD00"/>
<path d="M312.865 284.186L321.285 308.326L348.531 308.326L326.488 323.245L334.908 347.385L312.865 332.466L290.823 347.385L299.242 323.245L277.2 308.326L304.446 308.326L312.865 284.186Z" fill="#FFDD00"/>
<path d="M343.568 154.055L354.463 187.942H389.721L361.197 208.885L372.092 242.773L343.568 221.829L315.045 242.773L325.94 208.885L297.416 187.942H332.673L343.568 154.055Z" fill="#FFDD00"/>
<path d="M348.763 0.690659L361.293 39.6625H401.84L369.036 63.7485L381.566 102.72L348.763 78.6344L315.96 102.72L328.489 63.7485L295.686 39.6625H336.233L348.763 0.690659Z" fill="#FFDD00"/>
</svg>
