
<svg width="93" height="65" viewBox="0 0 93 65" fill="none" xmlns="http://www.w3.org/2000/svg">
<path fill-rule="evenodd" clip-rule="evenodd" d="M86.4537 18.7228C85.472 21.2147 84.732 26.5158 89.6252 27.7844C89.8076 29.6133 88.5719 33.252 82.1704 33.1759C80.0901 32.7815 75.4369 31.8181 73.4661 31.1196H65.1405C64.7952 31.1196 64.3485 31.1467 63.8053 31.1798C59.542 31.4389 49.3312 32.0596 35.4744 22.752C32.7626 20.7673 25.4643 17.0218 17.9656 17.9179C17.5272 17.0741 16.0324 15.541 13.5598 16.1592C12.6345 16.3905 11.6239 16.9208 10.5718 17.4729C9.88686 17.8324 9.18434 18.201 8.47638 18.5024C7.63723 18.5573 5.87558 18.0689 5.54219 15.6764C5.31339 15.1452 4.8607 13.9653 4.88031 13.4946C4.90482 12.9063 3.60558 15.1125 4.24295 16.706C4.85334 18.2319 5.37214 19.156 5.95773 19.163C4.96489 19.2118 3.98973 18.9465 3.06627 18.1523C1.84057 17.0982 1.50408 16.5098 1.20321 15.6764C0.902339 14.8429 0.902322 13.9085 0.902339 13.4946C0.902382 12.4539 -1.12136 16.3432 0.902352 18.9188C2.92607 21.4944 7.0103 23.1502 12.1248 19.5443C12.9833 18.8084 14.8917 17.6531 15.6571 18.9188C16.3081 19.9954 12.4783 21.2424 9.9411 22.0685C8.74968 22.4564 7.8433 22.7516 7.81979 22.8926C7.76091 23.2459 5.75927 31.4045 4.76581 35.4397C4.6309 35.7708 4.60392 36.4479 5.5753 36.5067C6.17051 36.5428 7.13706 36.8795 8.04588 37.1961C8.99106 37.5253 9.8738 37.8328 10.2114 37.7577C10.4779 37.6985 10.8038 36.9963 11.2037 36.1349C11.7979 34.8548 12.5553 33.2231 13.523 32.8272C15.142 32.1649 20.0357 33.2688 20.8083 40.5174C18.2349 40.229 12.8954 40.3741 12.1248 43.2616C11.6753 44.9458 13.3765 48.0827 15.958 50.9444C11.0819 56.8948 5.29081 63.9509 5.09117 64.1523C4.76581 64.4804 4.32554 65.082 6.40367 64.8632C8.06618 64.6882 8.73702 63.9882 8.86462 63.6601L10.2114 64.4804C11.2339 61.426 13.9273 56.4552 18.3537 53.2868C20.9102 55.4858 23.8476 57.1195 26.3647 57.0976C31.3959 57.0538 27.0756 54.1991 24.2865 52.7772L22.4271 53.2694C21.9489 52.8553 21.384 52.3609 20.8115 51.8213C22.8347 50.8428 25.1401 50.2605 27.7318 50.3163C40.4194 50.5897 45.4506 49.2772 49.6616 48.0194C51.6773 47.4173 53.6769 48.4693 56.0614 49.7238C58.6584 51.09 61.7118 52.6964 65.7397 52.6679C73.4661 52.6132 81.5445 55.621 83.1851 60.2148C83.9872 61.3814 85.5695 63.846 85.482 64.371C85.3945 64.896 89.7841 64.5898 91.9898 64.371C91.37 62.9856 89.9117 60.2148 89.0367 60.2148C87.9429 60.2148 84.0601 59.9413 81.4898 49.7694C81.2893 49.4231 80.7242 48.7741 80.0679 48.9491C79.2476 49.1679 76.901 48.9491 75.7476 47.1991C75.2189 46.397 74.1507 43.8632 74.1069 40.1444C74.0632 36.4256 71.4273 34.4022 70.1148 33.8553C70.7163 33.4178 73.3195 32.9913 78.9195 34.785C85.9195 37.0272 90.896 32.6495 91.0601 31.1196C91.0981 30.7656 91.2561 30.394 91.4346 29.9742C92.0274 28.5799 92.8459 26.6547 90.2398 23.0819C88.846 21.9987 86.1373 19.6105 86.4537 18.7228ZM17.9918 48.4619C17.4488 47.439 17.3464 46.482 18.1068 45.7772L19.9662 46.0507C19.3728 46.7755 18.7059 47.59 17.9918 48.4619Z" fill="#FFE957"/>
<path d="M53.9191 5.8133C54.7604 6.87365 56.652 7.14755 57.903 7.00155C56.1602 11.4641 48.8104 10.3194 46.8628 9.32203C46.2353 9.19806 44.9661 8.90627 44.9091 8.73085C44.8378 8.51158 44.6283 6.63753 44.516 6.4697C44.4262 6.33544 44.6971 5.90078 44.8438 5.70023C44.8438 2.09789 46.2641 1.87809 46.2641 1.87809C50.4737 0.345069 52.9776 4.62676 53.9191 5.8133Z" fill="#FFDD00"/>
<path d="M49.101 11.0717C49.8325 11.2497 53.1275 12.5266 53.2397 14.4704L54.6975 20.339C55.1087 20.6879 55.9759 21.5427 56.1554 22.1707L59.9681 29.385C60.7531 29.5969 62.3679 30.1476 62.5474 30.656C62.7716 31.2914 60.3045 31.441 59.37 31.3662L53.2397 22.5445C52.7911 21.6473 51.8566 19.7185 51.7071 19.1803L50.6605 17.3113C49.8579 18.1585 48.2881 20.0849 48.4287 21.0119C48.5694 21.9389 48.9297 22.0959 49.4643 22.5445C50.5483 23.4541 52.7537 25.3472 52.7537 27.4413C52.7537 29.6096 49.6138 34.0949 48.6419 34.2071C49.4394 34.7055 51.281 36.0537 52.2678 37.4592C53.5013 39.216 58.4729 46.094 58.9215 46.8416C59.2803 47.4397 59.7688 51.4767 59.9681 53.4205C59.4074 53.408 58.2486 52.9121 58.0991 51.0281C57.9496 49.1442 52.2678 39.8434 43.633 36.6742C42.7234 36.1509 41.0986 34.6108 41.8761 32.6371C42.4768 31.1125 42.749 29.8448 43.284 28.7988L42.1752 19.741C41.9384 19.3796 41.3752 18.6495 41.0164 18.6196C41.0164 18.6196 38.8061 21.9847 38.6629 22.097C38.5027 22.2227 35.6382 22.8334 35.6382 22.8334C35.6382 22.8334 31.7764 21.0119 32.8931 21.0119C33.5771 21.0118 34.9156 21.7167 37.3157 19.741C38.2283 17.548 40.3058 13.02 41.3154 12.4518C42.3251 11.8837 44.6333 11.295 45.3465 11.0717H49.101Z" fill="#FFDD00"/>
<path d="M45.3465 11.0717H49.101L48.0651 8.62366L45.7089 9.07677L45.3465 11.0717Z" fill="#FFDD00"/>
</svg>
