<svg width="444" height="445" viewBox="0 0 444 445" fill="none" xmlns="http://www.w3.org/2000/svg">
<rect x="51.705" y="53.733" width="333.443" height="333.443" fill="black"/>
<path fill-rule="evenodd" clip-rule="evenodd" d="M391.74 43.3602H45.0609V394.64H391.74V43.3602ZM381.796 53.4361H55.0048V384.564H148.115C277.173 384.564 381.796 291.171 381.796 147.781V53.4361Z" fill="white"/>
<path d="M71.6778 362.919L73.1992 367.662H78.1214L74.1389 370.594L75.6603 375.337L71.6778 372.406L67.6952 375.337L69.2167 370.594L65.2341 367.662H70.1564L71.6778 362.919ZM90.6806 362.919L92.202 367.662H97.1242L93.1417 370.594L94.6631 375.337L90.6806 372.406L86.698 375.337L88.2195 370.594L84.2369 367.662H89.1592L90.6806 362.919ZM110.159 362.919L111.68 367.662H116.602L112.621 370.594L114.142 375.337L110.16 372.406L106.177 375.337L107.699 370.594L103.716 367.662H108.638L110.159 362.919ZM131.628 361.911L133.148 366.655H138.07L134.088 369.587L135.609 374.329L131.627 371.398L127.644 374.329L129.165 369.587L125.183 366.655H130.105L131.628 361.911ZM153.59 360.903L155.11 365.647H160.032L156.051 368.579L157.571 373.322L153.59 370.391L149.607 373.322L151.129 368.579L147.146 365.647H152.068L153.59 360.903ZM176.051 358.054L177.572 362.798H182.495L178.512 365.73L180.033 370.473L176.051 367.541L172.068 370.473L173.59 365.73L169.607 362.798H174.531L176.051 358.054ZM200.472 351.189L201.993 355.933H206.915L202.933 358.865L204.454 363.609L200.472 360.677L196.49 363.609L198.011 358.865L194.029 355.933H198.951L200.472 351.189ZM227.461 340.483L228.982 345.225H233.905L229.922 348.157L231.443 352.901L227.461 349.969L223.479 352.901L225 348.157L221.017 345.225H225.94L227.461 340.483ZM257.723 313.137L260.187 320.822H268.161L261.711 325.57L264.175 333.255L257.723 328.505L251.272 333.255L253.736 325.57L247.285 320.822H255.259L257.723 313.137ZM292.307 267.328L296.299 279.777H309.218L298.766 287.471L302.758 299.92L292.307 292.226L281.856 299.92L285.848 287.471L275.396 279.777H288.315L292.307 267.328ZM318.206 189.814L324.673 209.981H345.601L328.67 222.446L335.137 242.613L318.206 230.149L301.275 242.613L307.743 222.446L290.812 209.981H311.739L318.206 189.814ZM320.195 73.5315L330.672 106.202H364.574L337.146 126.395L347.623 159.066L320.195 138.873L292.767 159.066L303.243 126.395L275.816 106.202H309.719L320.195 73.5315Z" fill="white"/>
</svg>